<?xml version="1.0" encoding="UTF-8"?>
<svg id="_レイヤー_1" data-name="レイヤー 1" xmlns="http://www.w3.org/2000/svg" viewBox="0 0 417.58 194.23">
  <defs>
    <style>
      .cls-1 {
        stroke-miterlimit: 3.99;
        stroke-width: 5.97px;
      }

      .cls-1, .cls-2, .cls-3, .cls-4, .cls-5, .cls-6 {
        fill: none;
        stroke: #040000;
      }

      .cls-2 {
        stroke-miterlimit: 4.23;
        stroke-width: 31.7px;
      }

      .cls-7 {
        fill: #4bb134;
      }

      .cls-7, .cls-8 {
        stroke-width: 0px;
      }

      .cls-3 {
        stroke-miterlimit: 6.5;
        stroke-width: 16.94px;
      }

      .cls-4 {
        stroke-miterlimit: 6.5;
        stroke-width: 16.94px;
      }

      .cls-8 {
        fill: #efea3c;
      }

      .cls-5 {
        stroke-miterlimit: 6.5;
        stroke-width: 16.94px;
      }

      .cls-6 {
        stroke-miterlimit: 6.5;
        stroke-width: 16.94px;
      }
    </style>
  </defs>
  <path class="cls-2" d="m146.11,178.36l-31.49-3.59.59-5.17c-4.1-.95-8.24-1.75-12.42-2.4-4.15-.64-8.24-1.19-12.25-1.65-2.52-.29-4.93-.53-7.24-.74-2.3-.21-4.55-.38-6.75-.52l-.3,2.61c-.14,1.26-.73,2.29-1.76,3.08-1,.83-2.13,1.16-3.4,1.02l-32.37-3.69,3.36-29.43c.11-.92.47-1.61,1.08-2.05.65-.47,1.31-.66,1.99-.58.59.07,1.13.4,1.63,1,.53.57.74,1.32.64,2.24l-1,8.79c-.11.92.06,1.67.51,2.23.45.56.97.87,1.55.94,1.48.17,2.34-.71,2.56-2.65l2.47-21.7c-6.92,5.6-14.13,10.7-21.64,15.3-1.75,1.1-3.43,1.57-5.06,1.38-2.41-.27-3.79-1.37-4.14-3.29-.54-2.5-1.12-5.65-1.73-9.44-.59-3.79-1.23-7.78-1.91-11.97-.69-4.23-1.3-8.25-1.86-12.1-.56-3.84-.98-7-1.26-9.47-.09-.49-.09-1.07-.02-1.75.29-2.53,1.19-3.7,2.71-3.52,1.15.13,1.96,1.09,2.44,2.87l1.4,4.55c5.09-1.86,10.5-4.68,16.21-8.46,5.74-3.77,10.84-7.91,15.3-12.39.92-.83,1.84-1.2,2.76-1.09,1.49.17,2.14,1.01,1.97,2.53-.08.67-.52,1.43-1.32,2.28-3.27,3.23-6.11,5.99-8.52,8.27-2.42,2.28-5.21,4.57-8.37,6.88-.5.43-.78.86-.83,1.31-.17,1.48.6,2.33,2.31,2.52.7.08,1.3-.02,1.78-.31,4.5-2.64,9.1-6.19,13.78-10.65,4.68-4.46,9.07-9.32,13.16-14.56-6.03-.2-12.02.08-17.99.85-5.94.77-11.18,1.72-15.74,2.85-1.32.31-2.55.39-3.69.26-1.97-.23-3.13-1.17-3.51-2.83,0,0-.3-1.45-.91-4.36-.6-2.94-1.37-6.93-2.29-11.97-.93-5.05-1.91-10.76-2.94-17.16l17.72-14.55,9.82,11.73c.92.1,1.85.24,2.76.4.92.16,1.83.29,2.73.4,3.92.45,7.87.78,11.85,1.01,3.98.23,7.81.49,11.49.8,1.27-2.89,2.49-5.94,3.68-9.16l-7.16-7.8,14.78-8.62c8.72,1.93,15.58,3.48,20.55,4.64,5.01,1.14,8.67,1.98,11,2.53,2.33.55,3.79.89,4.4,1.01.64.13.96.2.96.2,2.62.44,3.83,1.57,3.62,3.39-.11.93-.43,1.82-.99,2.7-2.29,3.69-5.13,7.78-8.51,12.28-3.35,4.5-6.75,8.64-10.19,12.42,4.93.56,9.99,1.24,15.19,2.03,5.22.76,10.84,1.77,16.86,3.03l.17.02c.81.09,1.44-.09,1.9-.55.45-.49.7-.96.76-1.41.17-1.48-.48-2.42-1.93-2.82-2.93-.7-5.46-1.2-7.58-1.5-2.13-.3-4.25-.6-6.37-.9-2.13-.3-4.78-.69-7.96-1.16-.92-.11-1.62-.47-2.09-1.09-.44-.65-.61-1.32-.54-2.02.09-.79.42-1.43.99-1.93.6-.52,1.36-.74,2.29-.63l6.01.69c4.48.51,8.67,1.05,12.55,1.6,3.88.56,7.78,1.17,11.67,1.84l11.99-10.3,14.84,18.09c-2.89,6.88-5.17,12.36-6.86,16.42-1.68,4.04-2.96,7.03-3.83,8.98-.85,1.92-1.41,3.19-1.72,3.81-.29.59-.44.88-.44.88-1.16,1.97-3,2.81-5.53,2.52-.45-.05-.94-.13-1.46-.25-.5-.11-1.03-.26-1.61-.44-5.13-1.86-11.03-3.59-17.73-5.18-6.69-1.59-13.6-2.96-20.74-4.11-7.13-1.16-14.08-2.12-20.84-2.89-1.91,2.34-3.92,4.75-6.02,7.23-2.08,2.49-4.24,5.01-6.48,7.57,1.95.11,3.9.28,5.86.5,1.96.22,3.85.44,5.68.65,4.71.54,8.98,1.08,12.8,1.63,3.85.55,7.03,1.08,9.53,1.6l12.2-6.1c1.35-.67,2.83-.91,4.42-.73,1.85.21,3.44,1.09,4.77,2.63,0,0,.61.71,1.84,2.13,1.26,1.42,3.63,4.16,7.11,8.22,3.49,4.06,8.6,10.08,15.36,18.06l-21.1,12.46-.98,8.58c-.25,2.19.31,3.36,1.68,3.52.56.06,1.13-.16,1.7-.66.6-.52.96-1.31,1.08-2.35l.92-8.07c.11-.92.46-1.55,1.07-1.88.64-.35,1.24-.5,1.8-.43,1.74.2,2.49,1.34,2.25,3.41l-4.21,36.87c-.14,1.26-.77,2.41-1.88,3.45-1.11,1.04-2.24,1.49-3.4,1.36Zm-27.15-37.13l1.77-15.51c-3.86-.78-7.91-1.52-12.14-2.24-4.21-.7-8.61-1.32-13.21-1.84-4.93-.56-10.01-.98-15.24-1.23l-1.82,16.02c6.15.36,12.49.91,19.02,1.66,3.9.44,7.68.93,11.33,1.46,3.66.53,7.09,1.09,10.29,1.68Z"/>
  <path class="cls-8" d="m146.11,178.36l-31.51-3.6.6-5.17c-4.07-.93-8.2-1.72-12.37-2.38-4.17-.65-8.25-1.2-12.26-1.64-2.54-.29-4.96-.54-7.25-.75-2.3-.2-4.55-.37-6.77-.5l-.28,2.58c-.15,1.26-.73,2.3-1.75,3.12-1.01.81-2.15,1.15-3.41,1l-32.38-3.7,3.35-29.45c.1-.93.47-1.61,1.1-2.05.63-.45,1.3-.63,1.99-.56.57.07,1.12.4,1.63.97.52.58.73,1.33.63,2.26l-1,8.77c-.11.93.07,1.68.53,2.26.46.57.98.89,1.55.96,1.49.16,2.35-.72,2.57-2.68l2.47-21.69c-6.93,5.6-14.15,10.71-21.65,15.33-1.73,1.08-3.41,1.52-5.01,1.33-2.42-.27-3.81-1.36-4.17-3.27-.54-2.48-1.12-5.62-1.74-9.41-.62-3.8-1.26-7.8-1.94-12.01-.68-4.21-1.3-8.23-1.85-12.06-.54-3.84-.97-7.01-1.28-9.49-.06-.47-.05-1.05.03-1.74.28-2.53,1.17-3.7,2.68-3.54,1.15.14,1.96,1.1,2.44,2.9l1.43,4.53c5.09-1.87,10.5-4.68,16.23-8.44,5.72-3.77,10.82-7.89,15.29-12.37.9-.85,1.81-1.21,2.74-1.1,1.49.17,2.15,1,1.97,2.51-.07.68-.51,1.44-1.32,2.29-3.27,3.23-6.11,5.98-8.52,8.27-2.41,2.29-5.21,4.59-8.38,6.89-.51.4-.79.83-.85,1.3-.18,1.5.6,2.34,2.32,2.54.69.09,1.28-.02,1.79-.33,4.49-2.62,9.08-6.16,13.77-10.64,4.7-4.47,9.09-9.31,13.17-14.54-6.01-.23-12.01.05-17.97.83-5.96.78-11.21,1.72-15.76,2.82-1.33.31-2.56.39-3.71.27-1.95-.23-3.12-1.18-3.49-2.85,0,0-.31-1.46-.91-4.37-.6-2.91-1.36-6.9-2.3-11.95-.93-5.05-1.9-10.78-2.91-17.17l17.7-14.55,9.82,11.75c.92.11,1.83.24,2.74.41.92.16,1.83.29,2.74.39,3.92.45,7.86.79,11.84,1.02,3.99.23,7.82.5,11.51.8,1.26-2.89,2.48-5.95,3.67-9.18l-7.13-7.8,14.77-8.6c8.74,1.92,15.59,3.46,20.57,4.61,4.98,1.15,8.63,2,10.96,2.55,2.33.56,3.81.9,4.43,1.03l.94.19c2.61.42,3.81,1.55,3.6,3.4-.11.91-.44,1.8-1,2.68-2.28,3.69-5.1,7.78-8.46,12.28-3.36,4.49-6.77,8.64-10.23,12.45,4.94.56,10.01,1.23,15.21,1.99,5.2.76,10.81,1.78,16.84,3.04l.16.03c.81.09,1.44-.1,1.9-.56.46-.47.71-.94.77-1.41.18-1.48-.47-2.43-1.93-2.84-2.94-.69-5.48-1.18-7.6-1.47-2.12-.3-4.24-.6-6.36-.91-2.11-.3-4.76-.69-7.96-1.17-.92-.1-1.61-.47-2.07-1.1-.45-.63-.63-1.29-.55-1.97.08-.8.42-1.46,1-1.97.58-.52,1.34-.73,2.26-.63l6.01.69c4.48.51,8.66,1.05,12.55,1.61,3.88.56,7.77,1.17,11.67,1.83l12-10.31,14.85,18.09c-2.88,6.88-5.16,12.35-6.84,16.42-1.68,4.05-2.96,7.04-3.82,8.98-.86,1.93-1.44,3.21-1.74,3.82-.31.61-.45.91-.45.91-1.15,1.95-2.98,2.78-5.5,2.49-.47-.05-.96-.13-1.47-.25-.5-.11-1.04-.27-1.61-.45-5.14-1.86-11.05-3.58-17.73-5.15-6.67-1.57-13.58-2.94-20.72-4.1-7.13-1.16-14.08-2.12-20.85-2.9-1.9,2.34-3.9,4.76-5.98,7.25-2.09,2.5-4.27,5.01-6.55,7.53,1.98.12,3.95.28,5.91.5,1.95.22,3.84.43,5.67.64,4.71.54,8.98,1.09,12.81,1.64,3.83.56,6.99,1.09,9.49,1.6l12.2-6.11c1.37-.66,2.85-.9,4.45-.72,1.82.22,3.41,1.11,4.76,2.66,0,0,.61.71,1.85,2.13,1.24,1.41,3.61,4.15,7.1,8.21,3.49,4.06,8.61,10.08,15.38,18.06l-21.15,12.42-.97,8.6c-.25,2.19.31,3.37,1.69,3.52.57.07,1.15-.14,1.72-.66.58-.52.94-1.3,1.07-2.35l.92-8.08c.09-.92.45-1.54,1.08-1.88.63-.34,1.22-.48,1.79-.41,1.72.2,2.47,1.33,2.24,3.4l-4.21,36.86c-.14,1.26-.76,2.41-1.86,3.45-1.11,1.03-2.24,1.49-3.4,1.36Zm-27.16-37.12l1.77-15.51c-3.85-.78-7.89-1.54-12.12-2.26-4.22-.72-8.62-1.34-13.2-1.86-4.94-.56-10.02-.96-15.22-1.21l-1.83,16.02c6.12.34,12.45.88,19,1.63,3.9.45,7.68.95,11.34,1.49,3.67.53,7.09,1.1,10.28,1.69Z"/>
  <path class="cls-3" d="m214.12,134.88l.14.02c.62.09.98-.15,1.06-.73.09-.58-.18-.97-.79-1.15-1.04-.25-1.98-.44-2.82-.59-.84-.14-1.66-.3-2.46-.46-.71-.2-1.03-.59-.95-1.16.04-.25.16-.45.38-.61.23-.17.51-.23.85-.18,1.39.2,2.62.42,3.71.66,1.1.23,2.51.52,4.22.86l5.06-3.97,4.61,7.41c-1.76,4.35-3.04,7.36-3.85,9.01-.8,1.64-1.2,2.47-1.2,2.47-.42.92-.94,1.34-1.58,1.25-.38-.05-.85-.19-1.41-.42-3.04-1.32-6.65-2.47-10.82-3.46.02,1.23-.02,2.42-.12,3.59-.1,1.16-.22,2.29-.38,3.39-.53,3.7-2.13,6.5-4.78,8.42-2.65,1.93-5.89,2.62-9.74,2.07-.76-.11-1.88-.29-3.37-.56-1.48-.26-3-.55-4.54-.87-1.54-.32-2.87-.61-3.97-.88-1.08-5.05-1.89-8.95-2.43-11.69-.54-2.76-.81-4.14-.81-4.14-.05-.3-.07-.52-.05-.67.05-.37.21-.64.47-.79.27-.16.56-.23.85-.18.52.07.85.37.97.88,0,0,.05.17.14.51.11.33.26.79.46,1.41.42.16,1.1.37,2.05.63.94.25,1.95.5,3.02.72,1.07.23,1.97.39,2.69.5.76.11,1.33-.13,1.72-.7.11-.13.18-.29.21-.47.03-.2.05-.39.08-.58.04-.25.07-.47.09-.65.03-.2.03-.35,0-.45l.04-.28c.12-.87.52-1.25,1.19-1.16.25.04.46.18.64.43.18.24.27.58.27,1.03l-.08.58c-.05.38-.14.83-.25,1.38-.1.55-.21.91-.34,1.1-.13.27-.21.45-.22.56-.09.67.14,1.04.72,1.12.53.08.94-.18,1.23-.78.25-.41.44-1.09.58-2.05.16-1.15.2-2.47.12-3.95-3.69-.53-7.33-.9-10.9-1.12-3.57-.22-6.88-.31-9.93-.25-3.05.05-5.61.29-7.68.73-.6.11-1.12.14-1.55.08-.67-.1-1.14-.54-1.43-1.32,0,0-.09-.36-.26-1.1-.16-.74-.36-2.03-.61-3.87-.25-1.86-.55-4.47-.9-7.85l6.52-6.42,4.78,9.21c2.72.15,5.44.37,8.16.67,2.73.28,5.51.53,8.31.74.29.04.52-.04.66-.23.15-.2.24-.4.27-.59.04-.25,0-.47-.08-.68-.09-.2-.26-.3-.52-.29-2.78-.4-5.5-.67-8.16-.83-2.64-.16-5.28-.29-7.91-.38l-.14-.02c-.23-.03-.42-.18-.56-.44-.13-.27-.18-.52-.14-.76.04-.29.16-.54.36-.76.21-.22.48-.31.81-.26,2.48.16,5.31.37,8.51.61,3.21.23,6.31.54,9.29.92l-.21-3.19c-3.24-.32-6.33-.51-9.27-.56-2.93-.06-5.5.02-7.73.24-.35,0-.7.02-1.05.05-.34.02-.65.01-.95-.03-.92-.13-1.51-.59-1.8-1.37,0,0-.16-.49-.49-1.49-.31-1-.74-2.26-1.28-3.79-.54-1.52-1.14-3.05-1.81-4.57l5.93-4.44,3.24,3.55c2,.09,4.19.25,6.57.48,2.4.21,4.92.49,7.57.82l-.33-2.24c-4.35-.43-8.63-.9-12.81-1.41-.63-.09-1.31-.32-2.02-.69-.7-.38-1.22-.9-1.55-1.59-.75-1.58-1.52-3.38-2.29-5.41-.76-2.02-1.35-3.83-1.75-5.4-.04-.1-.05-.2-.07-.29-.01-.1,0-.2,0-.29.11-.78.5-1.12,1.17-1.02.53.07.96.63,1.3,1.66,1.2.22,2.42.43,3.66.63,1.25.2,2.52.4,3.81.58,4.71.68,9.55,1.24,14.5,1.69,4.97.43,9.44.74,13.44.92l.16.02c.33.05.57.21.72.48.16.26.23.52.2.76-.07.53-.38.78-.92.75-2.35-.04-4.96-.17-7.82-.39-2.85-.22-5.68-.46-8.49-.73-2.8-.28-5.35-.59-7.66-.92l-1.3-.19c-.28-.04-.52.03-.73.2-.19.16-.3.36-.34.6-.09.62.21.98.88,1.08,2.98.43,6.16.82,9.52,1.19,3.38.36,6.79.65,10.22.85,3.43.2,6.64.26,9.63.2l-2.88-5.42,7.31.24c1.07,1.48,2.34,3.23,3.81,5.23,1.48,2,2.78,3.93,3.87,5.8.24.38.34.74.29,1.07-.1.73-.47,1.09-1.11,1.1-6.4.16-12.78.05-19.14-.33l.72,3.12c4.23.61,8.28,1.26,12.14,1.96l4.11-3,3.9,6.14c-.7,1.42-1.44,2.94-2.23,4.55-.79,1.6-1.47,2.79-2.02,3.59-.3.4-.7.69-1.22.87-.52.16-1.04.21-1.56.13l-.37-.05c-1.64-.52-3.34-1.01-5.12-1.45-1.77-.46-3.56-.87-5.37-1.22.22,1.25.4,2.49.56,3.72.17,1.22.32,2.43.45,3.62,1.24.23,2.44.47,3.6.72,1.17.24,2.14.46,2.9.67Z"/>
  <path class="cls-6" d="m283.93,136.29v.23c-.12,2.42-.21,4.69-.27,6.81-.05,2.11-.11,4.24-.19,6.4-.07,2.16-.22,4.55-.43,7.17-.05.78-.28,1.5-.69,2.16-.4.67-1.01,1.12-1.83,1.37-1.64.5-3.77.98-6.38,1.44-2.62.46-5.47.85-8.56,1.16-3.08.33-6.17.5-9.27.53-3.83.04-7.51-.22-11.06-.77-3.55-.55-6.74-1.46-9.57-2.75-2.83-1.29-5.07-2.99-6.71-5.11-1.64-2.12-2.48-4.73-2.51-7.83-.02-2.82.7-5.75,2.18-8.79,1.48-3.05,3.9-5.92,7.28-8.61l12.5,6.21c-1.78.89-3.24,1.99-4.37,3.29-1.13,1.29-1.69,2.3-1.68,3.04.01,1.16.66,2.05,1.95,2.66,1.3.62,2.89,1.04,4.79,1.27,1.9.22,3.74.32,5.53.3,1.65-.01,3.65-.18,6-.52,2.35-.34,4.79-.81,7.31-1.42,2.52-.6,4.89-1.29,7.1-2.06,2.23-.78,4.07-1.64,5.51-2.57.19-1.07.32-1.98.38-2.72.06-.76.09-1.14.09-1.14.04-.53.2-.92.49-1.16.29-.25.61-.38.96-.38.39,0,.73.14,1.02.43.3.28.45.74.46,1.37Zm-8.4-19.13l-12.85,11.69-10.95-4.2,3.6-2.79h-1.23c-2.08.03-4.56.31-7.42.84-2.86.54-5.6,1.42-8.2,2.65-.19.09-.44.2-.76.31-.31.1-.58.14-.83.15-.68,0-1.12-.26-1.32-.79,0,0-.21-.49-.63-1.45-.41-.97-1.08-2.6-2-4.88-.92-2.3-2.13-5.39-3.62-9.26l6.29-6.03,7.48,8.23c2.63-.36,5.51-.63,8.63-.83,3.12-.21,5.95-.4,8.47-.56.63-.06,1.08-.22,1.36-.45.29-.24.44-.51.44-.81,0-.29-.16-.56-.49-.79-.31-.25-.76-.36-1.34-.36-1.5.02-3.25.09-5.24.24-1.99.14-4.01.29-6.07.45-2.06.16-3.96.35-5.7.57h-.23c-.49,0-.84-.11-1.07-.34-.22-.25-.33-.52-.33-.81,0-.38.11-.73.35-1.05.24-.33.59-.51,1.03-.56,2.76-.42,5.9-.77,9.39-1.06,3.49-.31,7.06-.47,10.69-.51.63,0,1.25,0,1.85.02.6.02,1.2.02,1.79.02,1.52,1.93,3.04,3.92,4.55,5.96,1.52,2.04,2.98,4.18,4.36,6.41Zm-6.08-11.58l5.21-3.62c1.28,1.49,2.58,3.02,3.9,4.59,1.33,1.56,2.63,3.26,3.9,5.1.2.28.31.6.31.94,0,.34-.16.66-.51.94,0,0-.36.27-1.1.81-.72.54-1.91,1.38-3.6,2.52-1.24-2.04-2.56-4.01-3.97-5.9-1.39-1.91-2.78-3.7-4.15-5.38Zm6.93-4.95l5.44-3.53c.98,1.01,2.19,2.31,3.63,3.89,1.45,1.59,2.77,3.25,3.95,4.98.19.29.29.58.29.87,0,.39-.14.69-.43.89,0,0-.38.27-1.13.81-.74.54-1.95,1.44-3.63,2.72-1.13-1.93-2.44-3.82-3.91-5.67-1.48-1.86-2.88-3.51-4.21-4.95Zm-11.9,49.9h.37c2.27-.32,4.34-.74,6.21-1.27,1.87-.53,3.76-1.11,5.69-1.76.87-.31,1.31-.72,1.3-1.26,0-.29-.13-.54-.38-.78-.24-.25-.56-.37-.95-.36-.19,0-.33.03-.42.07-1.99.65-3.88,1.22-5.67,1.72-1.79.51-3.82.94-6.1,1.3-1.02.15-1.52.59-1.52,1.31,0,.25.12.49.36.71.25.21.62.31,1.1.31Z"/>
  <path class="cls-5" d="m322.96,158.3l-3.58.58c-1.07.18-2,.32-2.83.43-.81.11-1.63.18-2.45.22-.91.15-1.68-.02-2.29-.51-.62-.49-1.12-1.1-1.49-1.83-1.14-2.21-2.25-4.36-3.33-6.44-1.07-2.09-2.16-4.26-3.27-6.49-.07-.13-.12-.3-.16-.5-.06-.38.01-.67.22-.9.22-.24.47-.38.76-.43.52-.09.9.1,1.12.56,0,0,.09.14.29.44.2.28.42.58.67.88,1.62-.02,3.3-.07,5.05-.15,1.76-.09,3.4-.23,4.92-.4,1.52-.18,2.73-.34,3.65-.49,2.35-.38,4.48-1.01,6.37-1.88,1.9-.87,3.36-1.98,4.39-3.32,1.04-1.36,1.41-2.97,1.11-4.82-.34-2.07-1.44-3.67-3.3-4.81-1.85-1.15-4.12-1.51-6.8-1.07-1.16.19-2.61.74-4.35,1.66-1.73.92-3.72,2.2-5.96,3.85-1.53,1.14-3.4,2.88-5.6,5.23-2.2,2.34-4.39,5.11-6.58,8.33-.64.88-1.17,1.36-1.61,1.43-.52.09-1.08-.31-1.67-1.19,0,0-.7-1.12-2.09-3.35-1.4-2.24-3.21-5.26-5.45-9.07,2.92-2.58,5.76-5.32,8.53-8.21,2.78-2.89,5.12-5.47,7-7.75.46-.52.9-.81,1.34-.88.63-.1,1,.16,1.1.79.08.48-.11,1.03-.54,1.64-1,1.43-2.19,2.94-3.55,4.52-1.36,1.57-2.73,2.98-4.1,4.23-.51.48-.72.96-.65,1.44.09.58.43.81,1,.72.37-.06.77-.29,1.2-.7,1.95-1.94,3.57-3.67,4.85-5.18,1.28-1.52,2.41-3.05,3.41-4.61,1-1.57,2-3.37,2.99-5.4-.53.04-1.05.1-1.55.18-.51.08-.99.16-1.47.24-4.41.72-7.54,1.87-9.39,3.45-.43.36-.81.56-1.14.62-.34.05-.65-.04-.94-.28-.28-.25-.5-.57-.66-.94,0,0-.12-.24-.35-.72-.22-.48-.71-1.54-1.47-3.18-.76-1.65-1.99-4.21-3.68-7.67l4.94-6.85,4.32,2.99c1.93-.51,4.15-1.06,6.66-1.66,2.5-.61,4.93-1.1,7.28-1.49.67-.11,1.32-.2,1.97-.29.66-.08,1.28-.14,1.86-.19,1.49-1.37,2.49-2.29,3.01-2.78.52-.48.78-.72.78-.72.33-.29.82-.49,1.45-.6.52-.09,1.09-.09,1.69,0,.6.07,1.1.24,1.49.51,0,0,.12.08.36.25.24.15.72.49,1.44,1.01.73.52,1.84,1.3,3.33,2.34,1.5,1.03,3.5,2.42,5.99,4.19-2.62,2.24-5.32,4.55-8.09,6.95-2.76,2.39-5.27,4.73-7.55,7.03,2.33-1.12,4.52-1.85,6.57-2.19,2.11-.34,4.15-.32,6.14.08,1.98.38,3.96,1.08,5.94,2.09,3.01,1.52,5.24,3.52,6.7,6.02,1.46,2.49,2.4,5.05,2.83,7.68.5,3.07.39,6.12-.33,9.14-.71,3.01-2.17,5.7-4.39,8.08-2.52,2.66-5.48,4.8-8.88,6.41-3.4,1.61-7.78,2.85-13.15,3.72Zm13.81-23.47l-.07-.44c-.15-.91-.53-1.32-1.15-1.22-.67.11-1.01.56-1.04,1.36,0,2.31-.5,4.02-1.48,5.14-.97,1.12-2.06,2-3.28,2.64-.82.43-1.18.91-1.1,1.44.09.58.54.79,1.35.66.29-.05.52-.11.7-.18,1.9-.75,3.42-1.96,4.58-3.63,1.16-1.66,1.66-3.59,1.49-5.77Z"/>
  <path class="cls-4" d="m384.3,100.03l18.77,1.28c.56.02,1.25.31,2.04.87.79.55,1.31,1.22,1.57,2.01,1.05,3.22,1.78,6.6,2.22,10.13.43,3.53.21,6.95-.66,10.24-1.4,4.98-3.76,9.03-7.09,12.15-3.32,3.12-7.43,5.47-12.32,7.05-1.89.61-3.92,1.1-6.06,1.46-2.15.37-4.28.49-6.39.35-2.11-.13-4.09-.61-5.94-1.44-2.77-1.29-5.14-3.17-7.1-5.62-1.96-2.45-3.38-5.01-4.24-7.68-.48-1.48-.91-3.17-1.31-5.09-.38-1.92-.66-3.87-.81-5.86-.16-1.99-.18-3.82-.06-5.49-.03-.55.23-.92.78-1.1.33-.11.66-.09,1,.03.34.11.57.33.68.66.06.18.08.33.07.43-.19,2.56-.13,5.11.21,7.62.33,2.52.92,5.09,1.77,7.72.16.51.44,1.22.84,2.14.41.92.88,1.82,1.42,2.72.55.89,1.1,1.58,1.66,2.08.54.39.99.52,1.36.4.64-.21.84-.69.6-1.43-.11-.33-.23-.56-.38-.72-.72-.79-1.4-1.74-2.04-2.85-.64-1.13-1.12-2.17-1.43-3.14-1-3.09-1.62-5.99-1.87-8.71-.23-2.74-.19-5.33.14-7.78l-10.49-3.11,5.54-7.45c-1.42-.56-2.92-1.05-4.51-1.46-1.57-.41-3.09-.79-4.53-1.13l8.74-11.79c5.26.34,10.85,1.44,16.76,3.3.39.08.75.27,1.09.54.35.26.58.58.7.95.16.51,0,1.05-.49,1.61,0,0-.59.65-1.78,1.96-1.19,1.29-3.27,3.62-6.25,6.99l7.9.34c.8.1,1.35.59,1.63,1.47.16.51.14.98-.09,1.41-.7,1.45-1.22,3.3-1.57,5.55-.34,2.25-.47,4.53-.4,6.84.08,2.29.38,4.24.9,5.85.54,1.66,1.16,2.87,1.87,3.63.71.77,1.49,1.37,2.35,1.82.98.49,2,.69,3.07.61,1.07-.1,1.99-.27,2.78-.53,1.1-.36,2.27-.98,3.49-1.86,1.22-.88,2.11-2.1,2.68-3.65.74-2.08,1.05-4.24.92-6.46-.12-2.22-.54-4.45-1.26-6.67-.51-1.57-1.07-3.04-1.68-4.42-.6-1.39-1.32-2.59-2.15-3.6-1.13-.2-1.93-.3-2.4-.33-.47-.02-.7-.04-.7-.04-.63-.06-1.06-.43-1.28-1.12-.11-.33-.11-.65,0-.95.11-.32.37-.55.79-.69.27-.09.59-.11.96-.09Z"/>
  <path class="cls-8" d="m214.11,134.89l.14.02c.63.09.99-.15,1.08-.74.08-.57-.19-.96-.81-1.14-1.05-.25-1.99-.44-2.82-.58-.84-.14-1.66-.31-2.46-.49-.71-.19-1.03-.57-.94-1.14.03-.24.16-.44.38-.6.23-.16.51-.23.85-.19,1.39.21,2.63.43,3.73.66,1.1.22,2.5.5,4.21.85l5.06-3.98,4.59,7.42c-1.75,4.37-3.03,7.37-3.84,9.01-.79,1.64-1.19,2.46-1.19,2.46-.43.92-.96,1.34-1.58,1.25-.39-.05-.86-.19-1.41-.42-3.04-1.32-6.65-2.47-10.82-3.46.02,1.23-.02,2.44-.11,3.6-.09,1.16-.22,2.29-.38,3.38-.53,3.7-2.13,6.5-4.78,8.43-2.64,1.93-5.89,2.62-9.74,2.07-.76-.12-1.89-.31-3.37-.56-1.48-.26-3-.56-4.54-.88-1.55-.33-2.87-.61-3.96-.86-1.09-5.06-1.9-8.96-2.44-11.7-.53-2.75-.8-4.12-.8-4.12-.05-.3-.07-.52-.05-.67.05-.38.21-.66.49-.81.27-.16.55-.21.83-.17.53.07.85.37.97.88,0,0,.05.17.16.5.1.33.26.8.47,1.43.41.16,1.08.37,2.02.63.95.25,1.96.49,3.02.72,1.07.23,1.97.4,2.69.5.77.11,1.35-.13,1.72-.72.11-.13.18-.28.2-.47.03-.2.05-.38.08-.56.04-.25.07-.47.09-.66.03-.2.03-.35,0-.45l.05-.3c.13-.85.52-1.24,1.19-1.14.24.03.45.17.63.42.19.24.27.58.27,1.02l-.08.58c-.06.4-.15.87-.25,1.41-.11.54-.22.9-.33,1.08-.14.28-.22.47-.23.56-.09.67.14,1.05.72,1.13.53.07.94-.18,1.22-.77.26-.42.46-1.1.6-2.07.16-1.14.2-2.45.11-3.95-3.7-.53-7.33-.91-10.9-1.13-3.56-.22-6.87-.3-9.91-.23-3.05.05-5.61.31-7.68.75-.61.11-1.12.13-1.55.06-.68-.1-1.16-.54-1.43-1.32,0,0-.09-.36-.25-1.1-.17-.73-.38-2.02-.63-3.87-.25-1.86-.55-4.48-.89-7.86l6.5-6.42,4.78,9.23c2.73.15,5.45.37,8.18.66,2.73.29,5.5.54,8.32.74.28.04.5-.03.66-.22.16-.2.24-.39.27-.58.04-.25,0-.48-.09-.69-.09-.22-.26-.32-.5-.3-2.79-.4-5.51-.67-8.16-.83-2.64-.16-5.29-.27-7.93-.36l-.14-.02c-.24-.03-.43-.18-.56-.45-.13-.27-.17-.52-.14-.77.04-.28.16-.52.36-.74.21-.22.48-.31.81-.27,2.47.16,5.31.36,8.51.6,3.2.24,6.3.55,9.29.92l-.2-3.18c-3.25-.31-6.34-.49-9.27-.55-2.93-.06-5.51.01-7.74.22-.36,0-.7.02-1.05.05-.34.02-.67.01-.96-.03-.91-.13-1.5-.58-1.79-1.36,0,0-.16-.49-.49-1.49-.31-1-.74-2.26-1.28-3.79-.53-1.52-1.14-3.05-1.8-4.57l5.94-4.43,3.24,3.56c1.99.09,4.19.25,6.58.47,2.39.22,4.92.49,7.58.81l-.36-2.26c-4.35-.42-8.62-.88-12.83-1.39-.62-.08-1.28-.31-1.99-.69-.7-.38-1.22-.9-1.57-1.58-.75-1.57-1.51-3.37-2.27-5.39-.76-2.02-1.35-3.83-1.77-5.4-.03-.1-.05-.2-.06-.3,0-.1,0-.21.02-.31.11-.76.51-1.1,1.17-1,.52.09.96.64,1.3,1.66,1.19.23,2.4.45,3.65.64,1.24.2,2.51.39,3.82.58,4.7.68,9.53,1.24,14.49,1.68,4.97.44,9.45.75,13.44.94l.16.02c.32.05.56.22.72.49.16.26.22.51.19.75-.07.52-.38.78-.91.75-2.35-.05-4.96-.18-7.82-.39-2.86-.21-5.69-.45-8.49-.74-2.8-.28-5.35-.59-7.66-.92l-1.3-.19c-.29-.04-.54.03-.74.2-.19.17-.3.37-.33.61-.09.63.19.99.86,1.08,2.98.43,6.15.82,9.52,1.17,3.38.36,6.79.64,10.23.85,3.43.2,6.65.27,9.63.22l-2.9-5.42,7.31.23c1.05,1.48,2.32,3.23,3.81,5.23,1.48,2,2.78,3.93,3.88,5.8.23.39.32.74.27,1.07-.11.73-.47,1.09-1.1,1.08-6.4.17-12.79.07-19.16-.3l.74,3.1c4.23.62,8.28,1.28,12.15,1.97l4.09-3.02,3.9,6.16c-.68,1.42-1.42,2.94-2.22,4.54-.79,1.6-1.47,2.8-2.02,3.59-.31.4-.72.69-1.24.86-.51.18-1.03.23-1.55.14l-.36-.05c-1.64-.53-3.35-1.02-5.12-1.46-1.78-.45-3.57-.86-5.37-1.24.21,1.26.4,2.51.56,3.73.16,1.22.31,2.44.44,3.63,1.23.22,2.43.45,3.6.69,1.17.24,2.13.47,2.88.69Z"/>
  <path class="cls-8" d="m283.93,136.29v.22c-.13,2.42-.22,4.7-.27,6.81-.05,2.11-.12,4.24-.19,6.41-.07,2.16-.22,4.55-.44,7.17-.04.78-.27,1.49-.67,2.15s-1.03,1.11-1.85,1.36c-1.65.5-3.79.98-6.41,1.44-2.61.47-5.46.86-8.54,1.17-3.07.31-6.16.49-9.26.52-3.83.03-7.53-.23-11.07-.77-3.55-.54-6.74-1.46-9.57-2.76-2.82-1.28-5.06-2.98-6.7-5.11-1.65-2.12-2.49-4.73-2.51-7.83-.03-2.82.69-5.75,2.16-8.79,1.48-3.04,3.91-5.91,7.28-8.61l12.5,6.2c-1.79.9-3.24,2-4.37,3.29-1.13,1.3-1.69,2.31-1.68,3.04,0,1.16.66,2.05,1.94,2.68,1.29.62,2.89,1.04,4.78,1.27,1.9.22,3.75.33,5.54.31,1.65-.02,3.65-.2,6-.53,2.35-.34,4.78-.81,7.3-1.41,2.51-.6,4.89-1.29,7.11-2.07,2.23-.77,4.07-1.63,5.51-2.58.18-1.07.3-1.97.36-2.73l.09-1.13c.05-.53.22-.92.52-1.16.29-.24.6-.36.94-.38.38,0,.72.14,1.02.42.29.28.44.74.45,1.38Zm-8.41-19.14l-12.84,11.7-10.95-4.2,3.62-2.8-1.24.02c-2.09.02-4.57.31-7.42.85-2.85.53-5.58,1.42-8.19,2.65-.2.09-.45.2-.77.3-.31.11-.59.16-.83.16-.68.01-1.12-.25-1.32-.78,0,0-.22-.48-.64-1.44-.42-.97-1.09-2.6-2-4.9-.92-2.29-2.13-5.38-3.62-9.26l6.28-6.01,7.5,8.22c2.62-.36,5.49-.65,8.61-.85,3.12-.21,5.94-.39,8.47-.55.63-.05,1.08-.2,1.38-.45.29-.25.43-.52.42-.8,0-.29-.16-.56-.49-.8-.31-.24-.76-.36-1.33-.36-1.5.02-3.25.1-5.25.23-1.99.14-4.01.29-6.08.45-2.06.17-3.96.36-5.72.56h-.22c-.48.01-.83-.1-1.05-.34-.22-.25-.33-.52-.33-.8-.01-.4.1-.75.34-1.07.25-.31.59-.5,1.02-.56,2.76-.41,5.88-.76,9.37-1.05,3.5-.3,7.07-.47,10.71-.5.63,0,1.24,0,1.85.02.6.02,1.2.03,1.79.02,1.52,1.93,3.04,3.92,4.56,5.97,1.52,2.04,2.98,4.17,4.35,6.39Zm-6.08-11.58l5.22-3.62c1.28,1.5,2.58,3.02,3.9,4.59,1.32,1.56,2.62,3.25,3.9,5.09.2.29.3.61.31.94,0,.34-.17.67-.52.96,0,0-.36.27-1.08.81-.72.53-1.93,1.37-3.62,2.51-1.23-2.04-2.55-4-3.95-5.91-1.4-1.9-2.79-3.69-4.17-5.37Zm6.95-4.93l5.42-3.56c.98,1.01,2.19,2.31,3.63,3.9,1.45,1.59,2.76,3.25,3.95,4.98.2.29.3.59.3.88,0,.39-.13.68-.42.88,0,0-.38.27-1.13.81-.74.53-1.96,1.44-3.65,2.73-1.14-1.93-2.44-3.83-3.92-5.69-1.46-1.86-2.86-3.5-4.18-4.93Zm-11.92,49.87h.38c2.28-.3,4.34-.72,6.2-1.25,1.87-.53,3.77-1.12,5.7-1.75.87-.3,1.3-.72,1.3-1.25-.01-.29-.14-.56-.38-.8-.24-.25-.56-.37-.94-.36-.2,0-.34.03-.44.08-2,.65-3.89,1.22-5.69,1.72-1.79.5-3.81.94-6.08,1.3-1.01.16-1.52.6-1.52,1.32,0,.25.13.48.38.69.24.21.6.31,1.08.31Z"/>
  <path class="cls-8" d="m322.94,158.32l-3.59.58c-1.05.17-1.98.31-2.8.42-.81.1-1.64.17-2.46.2-.91.14-1.68-.02-2.3-.5-.62-.49-1.11-1.1-1.47-1.82-1.15-2.23-2.26-4.39-3.34-6.47-1.08-2.09-2.16-4.25-3.26-6.48-.09-.13-.14-.3-.17-.49-.06-.38,0-.69.22-.92.22-.24.47-.38.75-.42.53-.08.91.11,1.13.56,0,0,.1.15.3.44.2.28.42.58.66.89,1.62-.03,3.3-.09,5.06-.17,1.75-.08,3.39-.21,4.92-.38,1.52-.18,2.74-.34,3.65-.49,2.35-.38,4.47-1.02,6.36-1.9,1.9-.88,3.37-1.99,4.4-3.34s1.4-2.95,1.1-4.82c-.34-2.06-1.43-3.66-3.29-4.81-1.86-1.15-4.13-1.5-6.81-1.07-1.15.18-2.6.73-4.34,1.66-1.75.93-3.74,2.22-5.97,3.85-1.55,1.13-3.42,2.87-5.62,5.22-2.19,2.35-4.38,5.13-6.56,8.33-.64.89-1.17,1.37-1.61,1.44-.52.09-1.08-.32-1.66-1.21,0,0-.7-1.11-2.1-3.34-1.39-2.23-3.21-5.26-5.45-9.07,2.92-2.59,5.77-5.33,8.55-8.21,2.78-2.88,5.11-5.47,6.99-7.75.46-.5.9-.79,1.33-.86.63-.09.99.17,1.1.78.07.47-.11,1.02-.55,1.64-.99,1.43-2.17,2.94-3.54,4.51-1.37,1.58-2.74,2.99-4.1,4.24-.51.48-.73.96-.66,1.43.09.59.43.83,1,.74.38-.06.79-.31,1.22-.74,1.94-1.93,3.55-3.65,4.82-5.15,1.28-1.51,2.42-3.05,3.41-4.61,1-1.57,2-3.37,3.01-5.4-.53.04-1.06.11-1.57.19-.5.07-.99.15-1.46.23-4.42.71-7.56,1.86-9.41,3.45-.43.36-.81.56-1.14.61-.34.05-.65-.04-.94-.28-.28-.24-.5-.55-.66-.94,0,0-.12-.23-.34-.7-.23-.47-.72-1.53-1.47-3.18-.75-1.65-1.97-4.2-3.67-7.66l4.92-6.86,4.32,2.99c1.93-.51,4.15-1.07,6.66-1.68,2.51-.6,4.93-1.1,7.28-1.47.67-.11,1.32-.21,1.97-.28.66-.08,1.28-.15,1.86-.2,1.5-1.38,2.51-2.3,3.01-2.77.51-.48.77-.72.77-.72.34-.29.83-.49,1.46-.58.52-.08,1.08-.09,1.68-.02.6.06,1.1.23,1.5.52,0,0,.12.08.36.23.25.16.74.5,1.46,1.02.72.52,1.82,1.3,3.32,2.33,1.5,1.03,3.5,2.44,5.98,4.2-2.62,2.25-5.31,4.57-8.07,6.95-2.76,2.38-5.28,4.72-7.57,7.02,2.33-1.12,4.52-1.84,6.58-2.18,2.11-.34,4.15-.32,6.12.08,1.98.39,3.97,1.08,5.95,2.07,3,1.54,5.22,3.55,6.69,6.05,1.47,2.49,2.42,5.04,2.85,7.68.49,3.06.38,6.1-.34,9.13-.71,3.02-2.17,5.71-4.39,8.07-2.52,2.69-5.48,4.83-8.88,6.44-3.4,1.61-7.78,2.85-13.16,3.73Zm13.83-23.5l-.08-.42c-.15-.92-.53-1.32-1.16-1.22-.67.12-1.01.57-1.03,1.36-.02,2.31-.52,4.02-1.49,5.14-.97,1.12-2.06,2-3.27,2.63-.83.43-1.2.9-1.11,1.43.09.58.55.8,1.36.67.28-.05.51-.11.69-.19,1.91-.75,3.44-1.95,4.59-3.6,1.15-1.66,1.65-3.59,1.5-5.8Z"/>
  <path class="cls-8" d="m384.3,100.03l18.76,1.27c.57.02,1.26.31,2.05.88.79.56,1.32,1.24,1.57,2.02,1.04,3.23,1.78,6.61,2.21,10.15.43,3.53.2,6.94-.67,10.23-1.39,4.99-3.75,9.05-7.08,12.15-3.33,3.11-7.44,5.46-12.33,7.05-1.89.61-3.91,1.1-6.06,1.47-2.15.37-4.28.48-6.39.34-2.1-.13-4.07-.61-5.92-1.44-2.78-1.3-5.15-3.18-7.11-5.62-1.97-2.44-3.38-5-4.24-7.68-.48-1.48-.92-3.18-1.3-5.09-.39-1.92-.67-3.87-.83-5.86-.16-1.98-.17-3.81-.05-5.5-.02-.54.24-.9.78-1.08.32-.11.66-.11,1,.02.35.12.58.33.69.64.06.19.08.34.06.45-.2,2.56-.13,5.1.2,7.61.33,2.51.92,5.08,1.77,7.72.16.5.45,1.22.85,2.15.4.92.87,1.82,1.41,2.71.54.89,1.1,1.57,1.66,2.05.53.4.98.53,1.35.41.65-.21.85-.68.61-1.41-.11-.33-.23-.57-.38-.72-.72-.78-1.4-1.73-2.04-2.85-.64-1.13-1.11-2.17-1.43-3.13-1-3.09-1.63-6-1.88-8.72-.25-2.73-.2-5.33.14-7.78l-10.51-3.1,5.56-7.46c-1.41-.56-2.91-1.04-4.5-1.44-1.59-.41-3.09-.79-4.53-1.14l8.72-11.76c5.26.34,10.85,1.43,16.76,3.29.38.07.74.25,1.08.53.34.27.58.59.7.96.16.51,0,1.05-.47,1.6l-1.79,1.97c-1.19,1.31-3.29,3.63-6.28,6.99l7.93.33c.8.12,1.35.61,1.63,1.49.16.5.13.97-.09,1.41-.71,1.44-1.24,3.29-1.58,5.54-.34,2.26-.47,4.53-.39,6.83.08,2.29.38,4.24.91,5.86.54,1.66,1.17,2.88,1.88,3.65.71.76,1.49,1.36,2.33,1.8.98.49,2,.7,3.07.61,1.07-.09,1.99-.27,2.77-.53,1.12-.35,2.29-.97,3.51-1.85s2.11-2.09,2.66-3.65c.76-2.09,1.07-4.24.92-6.47-.14-2.22-.56-4.44-1.27-6.66-.51-1.57-1.07-3.04-1.68-4.43-.6-1.39-1.31-2.58-2.13-3.59-1.14-.19-1.94-.3-2.41-.33-.46-.03-.69-.05-.69-.05-.64-.04-1.07-.41-1.3-1.11-.11-.31-.11-.63,0-.94.11-.32.38-.55.8-.69.27-.08.59-.11.96-.09Z"/>
  <path class="cls-1" d="m201.71,71.21c1.5-4.54,2.94-9,4.31-13.38.58-1.84,1.18-3.77,1.79-5.78.62-2.02,1.23-4.02,1.85-6,.62-1.99,1.19-3.9,1.72-5.74.53-1.85,1.01-3.56,1.41-5.13,1.88,0,3.65-.1,5.33-.3,1.68-.21,3.49-.4,5.43-.58-.1.75-.21,1.6-.34,2.54-.12.94-.25,1.93-.42,2.95-.15,1.02-.31,2.08-.49,3.18-.16,1.09-.37,2.49-.61,4.21-.23,1.7-.56,3.83-.96,6.39h.66c.99-2.59,1.81-4.75,2.46-6.48.65-1.73,1.18-3.14,1.59-4.23.42-1.09.84-2.16,1.26-3.2.43-1.04.83-2.03,1.23-2.97.39-.94.76-1.77,1.1-2.49.86-.07,1.66-.15,2.42-.25.75-.11,1.5-.22,2.25-.34s1.51-.23,2.28-.35c.77-.13,1.61-.27,2.54-.44-.34,1.98-.67,4.01-.98,6.09-.31,2.09-.58,4.17-.83,6.23-.23,2.06-.46,4.1-.69,6.12-.22,2.02-.42,3.94-.59,5.74-.41,4.24-.77,8.38-1.07,12.41l-8.91,1.59c0-.17.02-.63.07-1.38.05-.76.12-1.68.2-2.78.08-1.1.2-2.31.35-3.63.16-1.34.31-2.67.46-4.01.16-1.34.32-2.62.49-3.87.18-1.25.35-2.32.53-3.2h-.47c-.48,1.43-1.01,2.95-1.6,4.54-.58,1.59-1.16,3.2-1.76,4.84-.6,1.64-1.18,3.24-1.77,4.82-.58,1.57-1.1,3.07-1.54,4.5-1.19.04-2.22.08-3.08.13-.85.05-1.84.11-2.97.18l1.64-19.01h-.78c-.07.44-.24,1.18-.51,2.23-.27,1.04-.58,2.24-.94,3.59-.36,1.34-.75,2.75-1.16,4.21-.41,1.45-.79,2.8-1.16,4.06-.36,1.24-.66,2.26-.9,3.07-.23.8-.36,1.25-.4,1.35l-8.46.56Zm41.37-.71c-.31,0-.91.04-1.8.14-.88.08-1.81.18-2.77.3-.95.11-1.81.23-2.58.34-.77.1-1.19.16-1.26.2.42-1.47.83-3.1,1.24-4.89.41-1.79.83-3.67,1.25-5.63.43-1.97.83-3.96,1.23-5.98.4-2.02.78-3.97,1.17-5.85.85-4.37,1.68-8.87,2.5-13.48l8-1.29c-.88,4.58-1.77,9.08-2.66,13.49-.38,1.88-.76,3.83-1.16,5.85-.39,2.01-.77,4.01-1.12,6-.36,1.98-.72,3.9-1.08,5.77-.36,1.86-.68,3.54-.95,5.04Zm30.04-18.51c-.23,3.49-.92,6.53-2.05,9.11-1.13,2.58-2.49,4.74-4.08,6.48-1.59,1.74-3.29,3.04-5.12,3.89-1.83.85-3.56,1.28-5.21,1.28-1.26,0-2.47-.27-3.62-.83-1.14-.54-2.13-1.37-2.96-2.48-.83-1.11-1.5-2.5-1.98-4.17-.48-1.68-.71-3.65-.71-5.91,0-4.41.63-8.25,1.89-11.53,1.27-3.29,2.87-6.02,4.79-8.21,1.94-2.19,4.01-3.81,6.21-4.87,2.2-1.06,4.26-1.59,6.18-1.59,1.37,0,2.55.24,3.56.73,1.01.47,1.84,1.11,2.49,1.91.65.8,1.12,1.74,1.41,2.82.29,1.08.44,2.22.44,3.41l-7.04,1.33c-.3-1.37-.71-2.34-1.23-2.92-.51-.58-1.09-.87-1.74-.87-.86,0-1.8.61-2.83,1.82-1.01,1.21-1.97,2.78-2.86,4.7-.88,1.91-1.64,4.01-2.26,6.31-.62,2.29-.96,4.54-1.03,6.76,0,2.12.32,3.63.95,4.54.63.9,1.44,1.35,2.43,1.35.69,0,1.39-.17,2.13-.51.74-.34,1.39-.83,1.98-1.46.59-.63,1.07-1.37,1.46-2.2.4-.83.61-1.75.64-2.74l-5.48.81.98-5.07c1.6-.21,3.17-.41,4.71-.61,1.3-.18,2.68-.38,4.13-.61,1.45-.24,2.73-.47,3.82-.68Zm5.79,18.51c-.31,0-.91.04-1.81.14-.88.08-1.81.18-2.76.3-.95.11-1.81.23-2.58.34-.77.1-1.19.16-1.26.2.42-1.47.83-3.1,1.24-4.89.41-1.79.83-3.67,1.25-5.63.42-1.97.83-3.96,1.23-5.98.39-2.02.78-3.97,1.16-5.85.85-4.37,1.69-8.87,2.5-13.48l8-1.29c-.88,4.58-1.77,9.08-2.67,13.49-.38,1.88-.76,3.83-1.15,5.85-.39,2.01-.77,4.01-1.13,6-.36,1.98-.72,3.9-1.07,5.77-.36,1.86-.68,3.54-.95,5.04Zm6.77,1.08c.78-3.76,1.54-7.47,2.25-11.13.31-1.54.61-3.14.92-4.8.31-1.68.61-3.33.9-4.96.29-1.63.54-3.2.76-4.72.22-1.52.42-2.91.6-4.18-.78-.1-1.58-.13-2.39-.1-.8.03-1.59-.07-2.38-.3.04-.55.05-1.19.05-1.9s.02-1.43.05-2.15c.03-.78.07-1.62.1-2.51.89.07,1.78.12,2.67.16.89.03,1.78.05,2.67.05,1.74,0,3.43-.04,5.04-.13,1.63-.09,3.13-.2,4.52-.31,1.39-.11,2.74-.26,4.08-.43l-.56,2.76c-.17.78-.34,1.59-.5,2.42-.15.82-.29,1.52-.42,2.1-.75.2-1.51.34-2.28.44-.77.08-1.53.19-2.29.33-.23,1.16-.49,2.45-.76,3.86-.27,1.42-.54,2.89-.8,4.42-.25,1.52-.5,3.07-.74,4.64-.24,1.57-.48,3.07-.71,4.5-.55,3.38-1.07,6.88-1.54,10.5l-9.23,1.44Zm14.35,0l6.71-36.45,16.21-1.39c-.24.75-.45,1.52-.61,2.31-.18.64-.34,1.32-.5,2.02-.15.7-.27,1.33-.38,1.88-.34.04-.83.06-1.46.08-.63.02-1.31.03-2.03.05-.72.02-1.44.03-2.18.03h-1.91l-1.81,9.17c1.06-.07,2.05-.12,2.98-.15.75-.03,1.52-.05,2.3-.05s1.37-.02,1.74-.05c-.13.96-.26,1.9-.39,2.83-.12.92-.26,1.85-.42,2.8-.34.04-.9.07-1.66.09-.77.02-1.55.04-2.34.08-.88.03-1.86.07-2.92.1l-1.74,9.44,7.48-1.19-.51,5.84-16.56,2.57Zm42.19-16.2c0,1.19-.2,2.43-.61,3.69-.41,1.26-.96,2.5-1.66,3.72-.7,1.21-1.53,2.36-2.49,3.45-.96,1.09-1.98,2.05-3.05,2.88-1.08.82-2.2,1.46-3.36,1.94-1.16.48-2.29.72-3.38.72-1.3,0-2.47-.22-3.52-.67-1.04-.44-1.91-1.06-2.62-1.86-.7-.81-1.24-1.78-1.61-2.91-.38-1.12-.56-2.36-.56-3.69,0-.65.02-1.32.07-2.04.06-.72.12-1.48.19-2.27l7.89.61c-.17.52-.25.93-.25,1.24,0,.69.2,1.18.61,1.49.41.3.89.45,1.44.45.44,0,.89-.09,1.35-.28.47-.19.9-.49,1.29-.9.39-.41.7-.92.94-1.53.24-.62.36-1.34.36-2.17,0-.41-.06-.81-.18-1.2-.12-.39-.38-.72-.78-1-.39-.28-.95-.51-1.66-.69-.72-.19-1.66-.29-2.82-.29-.31,0-.63,0-.95.03-.33.02-.76.06-1.32.14-.54.07-1.2.16-1.97.29-.77.12-1.75.28-2.94.48.38-2.56.83-5.51,1.38-8.84.55-3.34,1.22-7.11,2-11.31l19.54-.71-1.03,8.36c-1.92.07-3.86.13-5.83.2-1.96.07-3.97.15-6.02.26-.07.47-.14,1.09-.22,1.84-.08.75-.18,1.57-.29,2.46,2.2,0,4.06.21,5.6.61,1.54.41,2.78.97,3.74,1.69.96.72,1.65,1.56,2.08,2.54.43.97.64,2.06.64,3.25Zm23.73,4.66c0,1.37-.26,2.73-.78,4.08-.51,1.35-1.28,2.55-2.3,3.59-1.02,1.04-2.31,1.9-3.87,2.56-1.55.67-3.37,1-5.45,1-1.44,0-2.8-.26-4.11-.79-1.29-.53-2.43-1.33-3.4-2.39-.98-1.06-1.76-2.37-2.34-3.94-.58-1.58-.86-3.44-.86-5.6,0-4.17.55-7.82,1.66-10.95,1.11-3.13,2.51-5.72,4.21-7.79,1.69-2.07,3.53-3.61,5.51-4.62,1.99-1.01,3.85-1.52,5.6-1.52,1.26,0,2.37.24,3.33.73.96.47,1.76,1.11,2.4,1.91.65.8,1.13,1.73,1.44,2.79.31,1.06.47,2.21.47,3.44l-7.03,3.33c0-1.27-.17-2.19-.51-2.77-.34-.58-.8-.87-1.39-.87-.38,0-.81.24-1.3.72-.49.47-.99,1.14-1.49,2-.49.85-.97,1.87-1.44,3.04-.46,1.18-.86,2.47-1.2,3.87,1.5-.44,2.91-.67,4.21-.67,1.44,0,2.68.25,3.74.75,1.06.49,1.96,1.15,2.69,1.97.74.82,1.29,1.75,1.66,2.82.38,1.06.56,2.15.56,3.28Zm-14.04-.87c0,1.6.25,2.74.76,3.4.52.67,1.1,1,1.75,1,.69,0,1.32-.12,1.89-.35.58-.24,1.09-.55,1.52-.93.42-.38.77-.82,1.03-1.33.26-.52.39-1.02.39-1.5,0-.54-.29-1.02-.88-1.43-.58-.41-1.63-.61-3.13-.61-.47,0-.98.03-1.52.1-.52.07-1.11.2-1.76.42-.04.2-.05.4-.05.61v.61Zm23.94,12.45l1.03-8.2-8.82.66-2.26-4.62c1.13-3.38,2.2-6.61,3.23-9.69.44-1.3.88-2.64,1.33-4.02.45-1.39.89-2.73,1.31-4.02.43-1.3.83-2.53,1.2-3.69.38-1.17.72-2.18,1.03-3.03,1.44,0,2.8-.04,4.08-.13,1.28-.09,2.66-.23,4.13-.44-1.27,3.18-2.44,6.37-3.52,9.59-1.08,3.21-2.13,6.47-3.16,9.79-.03.24-.07.45-.1.63-.04.17-.08.37-.15.6h3.63c.04-.23.11-.61.22-1.14.1-.54.22-1.16.35-1.88.14-.72.29-1.5.44-2.35.16-.86.32-1.73.49-2.63.34-1.98.76-4.15,1.24-6.51,1.09-.17,2.2-.32,3.33-.46.92-.13,1.88-.25,2.87-.35.99-.11,1.85-.2,2.57-.26-.04.34-.13.93-.29,1.75-.15.81-.32,1.74-.51,2.76-.18,1.02-.37,2.11-.56,3.28-.18,1.16-.38,2.26-.59,3.28-.2,1.03-.37,1.95-.51,2.76-.13.82-.23,1.4-.3,1.74h2.92l-2.1,8.21h-2.62l-.45,6.71-9.44,1.64Z"/>
  <path class="cls-7" d="m201.72,71.21c1.5-4.54,2.94-9,4.31-13.38.57-1.85,1.17-3.78,1.79-5.8.61-2.01,1.23-4.01,1.85-6,.61-1.98,1.19-3.89,1.72-5.73.53-1.85,1-3.56,1.41-5.14,1.88,0,3.65-.1,5.33-.3,1.68-.21,3.49-.4,5.44-.56-.11.75-.22,1.6-.34,2.54-.12.94-.25,1.92-.41,2.94-.15,1.03-.31,2.08-.49,3.18-.17,1.1-.37,2.5-.61,4.21-.24,1.7-.56,3.83-.97,6.39h.67c.99-2.59,1.81-4.75,2.46-6.47.65-1.73,1.17-3.14,1.58-4.23.41-1.1.82-2.17,1.25-3.21.43-1.04.84-2.04,1.24-2.98.4-.94.76-1.77,1.1-2.49.85-.06,1.66-.14,2.41-.25.75-.1,1.5-.21,2.26-.33.75-.13,1.51-.24,2.27-.36.77-.13,1.62-.27,2.55-.44-.34,1.99-.67,4.02-.99,6.11-.31,2.08-.58,4.15-.81,6.22-.24,2.07-.47,4.11-.69,6.12-.22,2.02-.42,3.93-.6,5.75-.41,4.24-.76,8.38-1.07,12.41l-8.93,1.58c0-.16.02-.63.08-1.38.05-.75.12-1.68.2-2.77.08-1.1.2-2.31.36-3.63.16-1.34.31-2.67.45-3.99.16-1.34.32-2.62.49-3.87.18-1.25.35-2.32.52-3.21h-.45c-.48,1.43-1.01,2.94-1.6,4.54-.58,1.59-1.17,3.2-1.77,4.84-.6,1.64-1.19,3.25-1.77,4.82-.58,1.57-1.09,3.07-1.54,4.5-1.19.04-2.22.09-3.07.14-.86.05-1.85.11-2.98.17l1.64-19.02h-.77c-.07.44-.25,1.18-.52,2.22-.27,1.05-.59,2.25-.96,3.6-.36,1.35-.74,2.75-1.14,4.2-.41,1.45-.79,2.8-1.16,4.06-.36,1.25-.65,2.27-.89,3.07-.24.81-.38,1.25-.41,1.35l-8.46.56Z"/>
  <path class="cls-7" d="m243.08,70.5c-.31,0-.9.04-1.8.13-.89.09-1.81.19-2.77.31-.95.12-1.81.23-2.58.33-.76.09-1.18.16-1.25.2.42-1.47.83-3.11,1.24-4.9.41-1.79.82-3.67,1.25-5.64.43-1.96.83-3.95,1.22-5.97.4-2.01.78-3.96,1.16-5.84.85-4.37,1.7-8.87,2.52-13.49l7.99-1.28c-.89,4.59-1.78,9.08-2.66,13.49-.38,1.88-.76,3.83-1.16,5.84-.39,2.02-.76,4.02-1.13,6-.36,1.99-.72,3.91-1.08,5.78-.36,1.86-.67,3.54-.94,5.04Z"/>
  <path class="cls-7" d="m273.13,51.99c-.24,3.49-.92,6.52-2.05,9.1-1.13,2.58-2.49,4.74-4.09,6.48-1.59,1.75-3.3,3.05-5.12,3.9-1.83.85-3.56,1.28-5.2,1.28-1.26,0-2.47-.28-3.62-.83-1.15-.54-2.14-1.37-2.98-2.47-.84-1.12-1.5-2.51-1.97-4.18-.48-1.68-.72-3.65-.72-5.91,0-4.41.63-8.25,1.9-11.53,1.27-3.28,2.87-6.01,4.81-8.19,1.93-2.19,4-3.81,6.2-4.87,2.2-1.07,4.26-1.6,6.17-1.6,1.37,0,2.55.24,3.56.72,1.01.47,1.84,1.11,2.49,1.91.65.81,1.12,1.75,1.41,2.82.29,1.08.44,2.22.44,3.41l-7.02,1.33c-.31-1.37-.73-2.34-1.24-2.91-.51-.58-1.09-.88-1.74-.88-.86,0-1.8.61-2.82,1.82-1.03,1.21-1.99,2.78-2.88,4.7-.89,1.91-1.64,4.01-2.26,6.3-.61,2.29-.95,4.54-1.02,6.77,0,2.12.31,3.63.94,4.54.63.91,1.45,1.36,2.44,1.36.69,0,1.4-.17,2.13-.52.73-.34,1.39-.83,1.97-1.46.58-.63,1.07-1.37,1.46-2.21.4-.83.61-1.75.64-2.74l-5.48.81.97-5.07c1.61-.21,3.18-.41,4.71-.61,1.3-.18,2.68-.38,4.14-.61,1.45-.24,2.73-.46,3.82-.67Z"/>
  <path class="cls-7" d="m278.9,70.5c-.31,0-.9.04-1.8.13-.89.09-1.81.19-2.77.31-.95.12-1.81.23-2.58.33-.76.09-1.18.16-1.25.2.42-1.47.83-3.11,1.24-4.9.41-1.79.82-3.67,1.25-5.64.43-1.96.83-3.95,1.22-5.97.4-2.01.78-3.96,1.16-5.84.85-4.37,1.7-8.87,2.52-13.49l7.99-1.28c-.89,4.59-1.78,9.08-2.66,13.49-.38,1.88-.76,3.83-1.16,5.84-.39,2.02-.76,4.02-1.13,6-.36,1.99-.72,3.91-1.08,5.78-.36,1.86-.67,3.54-.94,5.04Z"/>
  <path class="cls-7" d="m285.68,71.57c.78-3.76,1.54-7.46,2.26-11.12.3-1.54.6-3.14.91-4.81.31-1.68.61-3.33.91-4.95.29-1.63.55-3.2.77-4.71.22-1.52.42-2.92.6-4.18-.79-.1-1.59-.14-2.4-.11-.81.03-1.6-.07-2.38-.31.03-.54.05-1.17.05-1.88s.02-1.44.06-2.16c.03-.78.06-1.62.09-2.51.88.06,1.77.12,2.66.16.9.03,1.79.05,2.68.05,1.74,0,3.42-.04,5.04-.13,1.62-.09,3.12-.2,4.51-.31,1.39-.13,2.75-.27,4.07-.44l-.56,2.77c-.17.78-.33,1.59-.49,2.41-.16.81-.31,1.52-.44,2.1-.75.2-1.52.34-2.29.44-.76.09-1.52.2-2.27.33-.24,1.16-.5,2.45-.77,3.87-.27,1.42-.54,2.89-.8,4.42-.25,1.52-.5,3.06-.74,4.64-.24,1.57-.48,3.07-.72,4.51-.54,3.38-1.06,6.89-1.54,10.51l-9.23,1.43Z"/>
  <path class="cls-7" d="m300.02,71.57l6.72-36.45,16.2-1.38c-.24.75-.45,1.52-.61,2.3-.17.65-.33,1.32-.49,2.02-.16.7-.29,1.33-.39,1.88-.34.03-.82.06-1.46.08-.64.01-1.32.03-2.04.05-.71.02-1.44.03-2.18.03h-1.91l-1.8,9.18c1.07-.07,2.06-.13,2.98-.16.75-.04,1.52-.06,2.3-.06s1.38-.02,1.75-.05c-.14.96-.27,1.91-.39,2.84-.12.92-.26,1.86-.44,2.8-.34.03-.89.06-1.66.08-.78.02-1.55.05-2.33.08-.89.03-1.86.07-2.91.11l-1.75,9.43,7.49-1.17-.52,5.84-16.56,2.55Z"/>
  <path class="cls-7" d="m342.22,55.37c0,1.2-.21,2.44-.63,3.7-.41,1.26-.96,2.5-1.66,3.71-.7,1.21-1.53,2.37-2.49,3.46-.95,1.1-1.97,2.06-3.04,2.88-1.08.81-2.2,1.46-3.37,1.94-1.16.47-2.29.7-3.38.7-1.3,0-2.47-.22-3.51-.66-1.05-.45-1.92-1.07-2.62-1.88-.7-.8-1.24-1.77-1.61-2.9s-.56-2.35-.56-3.68c0-.65.02-1.33.08-2.05.05-.72.11-1.47.17-2.26l7.89.61c-.17.51-.25.92-.25,1.24,0,.68.2,1.17.61,1.49.42.31.9.45,1.44.45.45,0,.9-.09,1.36-.28.46-.19.88-.49,1.27-.89.4-.42.71-.93.96-1.54.24-.61.36-1.34.36-2.16,0-.41-.06-.8-.19-1.19-.12-.4-.37-.73-.77-1-.39-.28-.94-.52-1.66-.7s-1.66-.28-2.82-.28c-.31,0-.62.01-.96.03-.33.01-.76.05-1.3.13-.54.07-1.2.17-1.97.28-.78.12-1.75.28-2.94.49.38-2.56.83-5.5,1.38-8.83.55-3.34,1.22-7.11,2-11.31l19.53-.72-1.03,8.35c-1.91.07-3.85.15-5.81.22-1.97.06-3.97.15-6.03.25-.06.48-.14,1.1-.23,1.85-.09.75-.17,1.57-.27,2.46,2.18,0,4.04.2,5.58.61,1.54.41,2.79.97,3.74,1.69.96.72,1.65,1.57,2.08,2.54.43.97.64,2.06.64,3.26Z"/>
  <path class="cls-7" d="m365.94,60.04c0,1.37-.26,2.73-.77,4.07-.51,1.35-1.28,2.55-2.3,3.59-1.03,1.05-2.31,1.9-3.87,2.57-1.56.67-3.38,1-5.47,1-1.43,0-2.8-.27-4.1-.8-1.3-.53-2.44-1.32-3.41-2.38-.97-1.07-1.75-2.38-2.33-3.95-.58-1.57-.86-3.44-.86-5.59,0-4.17.55-7.81,1.66-10.93,1.12-3.13,2.52-5.73,4.21-7.8,1.69-2.07,3.53-3.6,5.51-4.61,1.98-1.01,3.85-1.52,5.59-1.52,1.26,0,2.37.24,3.32.72.96.47,1.76,1.11,2.41,1.91.65.81,1.12,1.74,1.43,2.8.31,1.06.47,2.2.47,3.43l-7.02,3.34c0-1.27-.17-2.2-.52-2.77-.34-.58-.81-.88-1.38-.88-.38,0-.81.24-1.32.72-.49.48-.99,1.15-1.49,2-.49.85-.97,1.86-1.43,3.04-.46,1.18-.86,2.47-1.21,3.87,1.5-.44,2.9-.66,4.2-.66,1.44,0,2.69.25,3.74.75,1.07.49,1.96,1.15,2.69,1.97.73.81,1.28,1.75,1.66,2.82.38,1.06.56,2.15.56,3.27Zm-14.03-.88c0,1.61.25,2.75.77,3.41.51.67,1.09,1,1.74,1s1.31-.12,1.9-.36c.58-.24,1.08-.55,1.5-.92.43-.38.77-.82,1.03-1.33.26-.51.39-1.01.39-1.49,0-.55-.29-1.03-.88-1.44-.59-.41-1.63-.61-3.13-.61-.48,0-.99.04-1.52.11-.52.06-1.11.2-1.75.41-.03.2-.05.4-.05.61v.61Z"/>
  <path class="cls-7" d="m375.84,71.63l1.02-8.21-8.82.66-2.26-4.61c1.13-3.38,2.2-6.61,3.23-9.7.45-1.29.89-2.63,1.33-4.01.45-1.39.88-2.73,1.32-4.03.43-1.3.83-2.54,1.21-3.7.38-1.17.71-2.18,1.02-3.02,1.44,0,2.8-.04,4.07-.13,1.28-.09,2.66-.24,4.14-.44-1.26,3.18-2.44,6.37-3.51,9.59-1.08,3.21-2.13,6.47-3.16,9.79-.03.24-.06.45-.09.61-.03.17-.09.37-.16.61h3.63c.04-.24.11-.62.2-1.14.1-.53.22-1.15.36-1.86.13-.72.28-1.51.44-2.37.16-.85.32-1.73.49-2.62.34-1.98.76-4.15,1.24-6.52,1.1-.16,2.21-.32,3.34-.45.92-.13,1.87-.25,2.87-.36.99-.1,1.84-.19,2.55-.27-.03.34-.13.93-.28,1.75-.15.81-.31,1.74-.5,2.77-.19,1.03-.38,2.11-.56,3.27s-.39,2.26-.6,3.29c-.21,1.03-.38,1.95-.52,2.77-.14.81-.23,1.39-.3,1.72h2.91l-2.1,8.21h-2.62l-.45,6.72-9.43,1.64Z"/>
</svg>